<svg width="15" height="15" viewBox="0 0 15 15" fill="none" xmlns="http://www.w3.org/2000/svg">
<path fill-rule="evenodd" clip-rule="evenodd" d="M1.4998 1.05005C1.44071 1.05005 1.38219 1.06169 1.3276 1.0843C1.273 1.10692 1.22339 1.14006 1.18161 1.18185C1.13982 1.22364 1.10667 1.27324 1.08406 1.32784C1.06144 1.38244 1.0498 1.44095 1.0498 1.50005C1.0498 1.55914 1.06144 1.61766 1.08406 1.67226C1.10667 1.72685 1.13982 1.77646 1.18161 1.81825C1.22339 1.86003 1.273 1.89318 1.3276 1.91579C1.38219 1.93841 1.44071 1.95005 1.4998 1.95005H13.4998C13.6192 1.95005 13.7336 1.90264 13.818 1.81825C13.9024 1.73386 13.9498 1.6194 13.9498 1.50005C13.9498 1.3807 13.9024 1.26624 13.818 1.18185C13.7336 1.09746 13.6192 1.05005 13.4998 1.05005H1.4998ZM3.9318 7.43205C3.88759 7.47325 3.85213 7.52293 3.82754 7.57813C3.80294 7.63333 3.78972 7.69291 3.78865 7.75333C3.78758 7.81376 3.7987 7.87377 3.82133 7.92981C3.84396 7.98584 3.87765 8.03674 3.92038 8.07947C3.96311 8.1222 4.01401 8.15589 4.07005 8.17852C4.12608 8.20115 4.1861 8.21227 4.24652 8.2112C4.30694 8.21014 4.36653 8.19691 4.42173 8.17232C4.47693 8.14772 4.52661 8.11226 4.5678 8.06805L7.0498 5.58605V13.5C7.0498 13.6194 7.09721 13.7339 7.18161 13.8182C7.266 13.9026 7.38046 13.95 7.4998 13.95C7.61915 13.95 7.73361 13.9026 7.818 13.8182C7.90239 13.7339 7.9498 13.6194 7.9498 13.5V5.58605L10.4318 8.06805C10.473 8.11226 10.5227 8.14772 10.5779 8.17232C10.6331 8.19691 10.6927 8.21014 10.7531 8.2112C10.8135 8.21227 10.8735 8.20115 10.9296 8.17852C10.9856 8.15589 11.0365 8.1222 11.0792 8.07947C11.122 8.03674 11.1556 7.98584 11.1783 7.92981C11.2009 7.87377 11.212 7.81376 11.211 7.75333C11.2099 7.69291 11.1967 7.63333 11.1721 7.57813C11.1475 7.52293 11.112 7.47325 11.0678 7.43205L7.8178 4.18205C7.73343 4.09778 7.61905 4.05044 7.4998 4.05044C7.38055 4.05044 7.26618 4.09778 7.1818 4.18205L3.9318 7.43205Z" fill="black"/>
</svg>
