<svg width="192" height="41" viewBox="0 0 192 41" fill="none" xmlns="http://www.w3.org/2000/svg">
<rect x="0.5" y="1" width="191" height="39" rx="19.5" fill="white"/>
<rect x="0.5" y="1" width="191" height="39" rx="19.5" stroke="url(#paint0_linear_723_12573)"/>
<path d="M20 8.5C13.376 8.5 8 13.876 8 20.5C8 27.124 13.376 32.5 20 32.5C26.624 32.5 32 27.124 32 20.5C32 13.876 26.624 8.5 20 8.5ZM24.236 21.736L20.636 25.336C20.456 25.516 20.228 25.6 20 25.6C19.772 25.6 19.544 25.516 19.364 25.336L15.764 21.736C15.416 21.388 15.416 20.812 15.764 20.464C16.112 20.116 16.688 20.116 17.036 20.464L19.1 22.528V16.3C19.1 15.808 19.508 15.4 20 15.4C20.492 15.4 20.9 15.808 20.9 16.3V22.528L22.964 20.464C23.312 20.116 23.888 20.116 24.236 20.464C24.584 20.812 24.584 21.388 24.236 21.736Z" fill="black"/>
<path d="M41.7874 26V16.2H45.9174C46.9627 16.2 47.882 16.4053 48.6754 16.816C49.478 17.2267 50.0987 17.8007 50.5374 18.538C50.9854 19.2753 51.2094 20.1293 51.2094 21.1C51.2094 22.0707 50.9854 22.9247 50.5374 23.662C50.0987 24.3993 49.478 24.9733 48.6754 25.384C47.882 25.7947 46.9627 26 45.9174 26H41.7874ZM43.1874 24.782H45.8334C46.6454 24.782 47.3454 24.628 47.9334 24.32C48.5307 24.012 48.9927 23.5827 49.3194 23.032C49.646 22.472 49.8094 21.828 49.8094 21.1C49.8094 20.3627 49.646 19.7187 49.3194 19.168C48.9927 18.6173 48.5307 18.188 47.9334 17.88C47.3454 17.572 46.6454 17.418 45.8334 17.418H43.1874V24.782ZM56.3358 26.084C55.5891 26.084 54.9265 25.9207 54.3478 25.594C53.7691 25.2673 53.3118 24.8193 52.9758 24.25C52.6398 23.6713 52.4718 23.018 52.4718 22.29C52.4718 21.5527 52.6398 20.8993 52.9758 20.33C53.3118 19.7607 53.7691 19.3173 54.3478 19C54.9265 18.6733 55.5891 18.51 56.3358 18.51C57.0731 18.51 57.7311 18.6733 58.3098 19C58.8978 19.3173 59.3551 19.7607 59.6818 20.33C60.0178 20.89 60.1858 21.5433 60.1858 22.29C60.1858 23.0273 60.0178 23.6807 59.6818 24.25C59.3551 24.8193 58.8978 25.2673 58.3098 25.594C57.7311 25.9207 57.0731 26.084 56.3358 26.084ZM56.3358 24.908C56.8118 24.908 57.2365 24.8007 57.6098 24.586C57.9925 24.3713 58.2911 24.068 58.5058 23.676C58.7205 23.2747 58.8278 22.8127 58.8278 22.29C58.8278 21.758 58.7205 21.3007 58.5058 20.918C58.2911 20.526 57.9925 20.2227 57.6098 20.008C57.2365 19.7933 56.8118 19.686 56.3358 19.686C55.8598 19.686 55.4351 19.7933 55.0618 20.008C54.6885 20.2227 54.3898 20.526 54.1658 20.918C53.9418 21.3007 53.8298 21.758 53.8298 22.29C53.8298 22.8127 53.9418 23.2747 54.1658 23.676C54.3898 24.068 54.6885 24.3713 55.0618 24.586C55.4351 24.8007 55.8598 24.908 56.3358 24.908ZM63.4074 26L60.6494 18.58H61.9234L64.3734 25.3H63.7714L66.3194 18.58H67.4534L69.9454 25.3H69.3574L71.8634 18.58H73.0674L70.2954 26H69.0074L66.6694 19.868H67.0614L64.6954 26H63.4074ZM78.3932 18.51C78.9999 18.51 79.5319 18.6267 79.9892 18.86C80.4559 19.0933 80.8199 19.448 81.0812 19.924C81.3426 20.4 81.4732 21.002 81.4732 21.73V26H80.1292V21.884C80.1292 21.1653 79.9519 20.624 79.5972 20.26C79.2519 19.896 78.7619 19.714 78.1272 19.714C77.6512 19.714 77.2359 19.8073 76.8812 19.994C76.5266 20.1807 76.2512 20.456 76.0552 20.82C75.8686 21.184 75.7752 21.6367 75.7752 22.178V26H74.4312V18.58H75.7192V20.582L75.5092 20.05C75.7519 19.5647 76.1252 19.1867 76.6292 18.916C77.1332 18.6453 77.7212 18.51 78.3932 18.51ZM83.9605 26V15.612H85.3045V26H83.9605ZM91.0487 26.084C90.302 26.084 89.6393 25.9207 89.0607 25.594C88.482 25.2673 88.0247 24.8193 87.6887 24.25C87.3527 23.6713 87.1847 23.018 87.1847 22.29C87.1847 21.5527 87.3527 20.8993 87.6887 20.33C88.0247 19.7607 88.482 19.3173 89.0607 19C89.6393 18.6733 90.302 18.51 91.0487 18.51C91.786 18.51 92.444 18.6733 93.0227 19C93.6107 19.3173 94.068 19.7607 94.3947 20.33C94.7307 20.89 94.8987 21.5433 94.8987 22.29C94.8987 23.0273 94.7307 23.6807 94.3947 24.25C94.068 24.8193 93.6107 25.2673 93.0227 25.594C92.444 25.9207 91.786 26.084 91.0487 26.084ZM91.0487 24.908C91.5247 24.908 91.9493 24.8007 92.3227 24.586C92.7053 24.3713 93.004 24.068 93.2187 23.676C93.4333 23.2747 93.5407 22.8127 93.5407 22.29C93.5407 21.758 93.4333 21.3007 93.2187 20.918C93.004 20.526 92.7053 20.2227 92.3227 20.008C91.9493 19.7933 91.5247 19.686 91.0487 19.686C90.5727 19.686 90.148 19.7933 89.7747 20.008C89.4013 20.2227 89.1027 20.526 88.8787 20.918C88.6547 21.3007 88.5427 21.758 88.5427 22.29C88.5427 22.8127 88.6547 23.2747 88.8787 23.676C89.1027 24.068 89.4013 24.3713 89.7747 24.586C90.148 24.8007 90.5727 24.908 91.0487 24.908ZM101.295 26V24.432L101.225 24.138V21.464C101.225 20.8947 101.057 20.456 100.721 20.148C100.394 19.8307 99.8997 19.672 99.237 19.672C98.7984 19.672 98.369 19.7467 97.949 19.896C97.529 20.036 97.1744 20.2273 96.885 20.47L96.325 19.462C96.7077 19.154 97.165 18.9207 97.697 18.762C98.2384 18.594 98.803 18.51 99.391 18.51C100.408 18.51 101.192 18.7573 101.743 19.252C102.294 19.7467 102.569 20.5027 102.569 21.52V26H101.295ZM98.859 26.084C98.3084 26.084 97.823 25.9907 97.403 25.804C96.9924 25.6173 96.675 25.3607 96.451 25.034C96.227 24.698 96.115 24.32 96.115 23.9C96.115 23.4987 96.2084 23.1347 96.395 22.808C96.591 22.4813 96.9037 22.22 97.333 22.024C97.7717 21.828 98.3597 21.73 99.097 21.73H101.449V22.696H99.153C98.481 22.696 98.0284 22.808 97.795 23.032C97.5617 23.256 97.445 23.5267 97.445 23.844C97.445 24.208 97.5897 24.502 97.879 24.726C98.1684 24.9407 98.5697 25.048 99.083 25.048C99.587 25.048 100.026 24.936 100.399 24.712C100.782 24.488 101.057 24.1613 101.225 23.732L101.491 24.656C101.314 25.0947 101.001 25.4447 100.553 25.706C100.105 25.958 99.5404 26.084 98.859 26.084ZM108.122 26.084C107.404 26.084 106.76 25.9253 106.19 25.608C105.63 25.2907 105.187 24.8473 104.86 24.278C104.534 23.7087 104.37 23.046 104.37 22.29C104.37 21.534 104.534 20.876 104.86 20.316C105.187 19.7467 105.63 19.3033 106.19 18.986C106.76 18.6687 107.404 18.51 108.122 18.51C108.748 18.51 109.312 18.65 109.816 18.93C110.32 19.21 110.722 19.63 111.02 20.19C111.328 20.75 111.482 21.45 111.482 22.29C111.482 23.13 111.333 23.83 111.034 24.39C110.745 24.95 110.348 25.3747 109.844 25.664C109.34 25.944 108.766 26.084 108.122 26.084ZM108.234 24.908C108.701 24.908 109.121 24.8007 109.494 24.586C109.877 24.3713 110.176 24.068 110.39 23.676C110.614 23.2747 110.726 22.8127 110.726 22.29C110.726 21.758 110.614 21.3007 110.39 20.918C110.176 20.526 109.877 20.2227 109.494 20.008C109.121 19.7933 108.701 19.686 108.234 19.686C107.758 19.686 107.334 19.7933 106.96 20.008C106.587 20.2227 106.288 20.526 106.064 20.918C105.84 21.3007 105.728 21.758 105.728 22.29C105.728 22.8127 105.84 23.2747 106.064 23.676C106.288 24.068 106.587 24.3713 106.96 24.586C107.334 24.8007 107.758 24.908 108.234 24.908ZM110.768 26V23.998L110.852 22.276L110.712 20.554V15.612H112.056V26H110.768ZM118.555 26V16.2H122.377C123.236 16.2 123.968 16.3353 124.575 16.606C125.182 16.8767 125.648 17.2687 125.975 17.782C126.302 18.2953 126.465 18.9067 126.465 19.616C126.465 20.3253 126.302 20.9367 125.975 21.45C125.648 21.954 125.182 22.3413 124.575 22.612C123.968 22.8827 123.236 23.018 122.377 23.018H119.325L119.955 22.374V26H118.555ZM125.107 26L122.615 22.444H124.113L126.633 26H125.107ZM119.955 22.514L119.325 21.828H122.335C123.231 21.828 123.908 21.6367 124.365 21.254C124.832 20.862 125.065 20.316 125.065 19.616C125.065 18.916 124.832 18.3747 124.365 17.992C123.908 17.6093 123.231 17.418 122.335 17.418H119.325L119.955 16.718V22.514ZM131.835 26.084C131.042 26.084 130.342 25.9207 129.735 25.594C129.138 25.2673 128.671 24.8193 128.335 24.25C128.008 23.6807 127.845 23.0273 127.845 22.29C127.845 21.5527 128.004 20.8993 128.321 20.33C128.648 19.7607 129.091 19.3173 129.651 19C130.22 18.6733 130.86 18.51 131.569 18.51C132.288 18.51 132.922 18.6687 133.473 18.986C134.024 19.3033 134.453 19.7513 134.761 20.33C135.078 20.8993 135.237 21.5667 135.237 22.332C135.237 22.388 135.232 22.4533 135.223 22.528C135.223 22.6027 135.218 22.6727 135.209 22.738H128.895V21.772H134.509L133.963 22.108C133.972 21.632 133.874 21.2073 133.669 20.834C133.464 20.4607 133.179 20.1713 132.815 19.966C132.46 19.7513 132.045 19.644 131.569 19.644C131.102 19.644 130.687 19.7513 130.323 19.966C129.959 20.1713 129.674 20.4653 129.469 20.848C129.264 21.2213 129.161 21.6507 129.161 22.136V22.36C129.161 22.8547 129.273 23.298 129.497 23.69C129.73 24.0727 130.052 24.3713 130.463 24.586C130.874 24.8007 131.345 24.908 131.877 24.908C132.316 24.908 132.712 24.8333 133.067 24.684C133.431 24.5347 133.748 24.3107 134.019 24.012L134.761 24.88C134.425 25.272 134.005 25.5707 133.501 25.776C133.006 25.9813 132.451 26.084 131.835 26.084ZM139.231 26.084C138.615 26.084 138.027 26 137.467 25.832C136.916 25.664 136.482 25.4587 136.165 25.216L136.725 24.152C137.042 24.3667 137.434 24.5487 137.901 24.698C138.368 24.8473 138.844 24.922 139.329 24.922C139.954 24.922 140.402 24.8333 140.673 24.656C140.953 24.4787 141.093 24.2313 141.093 23.914C141.093 23.6807 141.009 23.4987 140.841 23.368C140.673 23.2373 140.449 23.1393 140.169 23.074C139.898 23.0087 139.595 22.9527 139.259 22.906C138.923 22.85 138.587 22.7847 138.251 22.71C137.915 22.626 137.607 22.514 137.327 22.374C137.047 22.2247 136.823 22.024 136.655 21.772C136.487 21.5107 136.403 21.1653 136.403 20.736C136.403 20.288 136.529 19.896 136.781 19.56C137.033 19.224 137.388 18.9673 137.845 18.79C138.312 18.6033 138.862 18.51 139.497 18.51C139.982 18.51 140.472 18.5707 140.967 18.692C141.471 18.804 141.882 18.9673 142.199 19.182L141.625 20.246C141.289 20.022 140.939 19.868 140.575 19.784C140.211 19.7 139.847 19.658 139.483 19.658C138.895 19.658 138.456 19.756 138.167 19.952C137.878 20.1387 137.733 20.3813 137.733 20.68C137.733 20.932 137.817 21.128 137.985 21.268C138.162 21.3987 138.386 21.5013 138.657 21.576C138.937 21.6507 139.245 21.716 139.581 21.772C139.917 21.8187 140.253 21.884 140.589 21.968C140.925 22.0427 141.228 22.15 141.499 22.29C141.779 22.43 142.003 22.626 142.171 22.878C142.348 23.13 142.437 23.466 142.437 23.886C142.437 24.334 142.306 24.7213 142.045 25.048C141.784 25.3747 141.415 25.6313 140.939 25.818C140.463 25.9953 139.894 26.084 139.231 26.084ZM147.239 26.084C146.604 26.084 146.044 25.9673 145.559 25.734C145.083 25.5007 144.709 25.146 144.439 24.67C144.177 24.1847 144.047 23.578 144.047 22.85V18.58H145.391V22.696C145.391 23.424 145.563 23.97 145.909 24.334C146.263 24.698 146.758 24.88 147.393 24.88C147.859 24.88 148.265 24.7867 148.611 24.6C148.956 24.404 149.222 24.124 149.409 23.76C149.595 23.3867 149.689 22.9387 149.689 22.416V18.58H151.033V26H149.759V23.998L149.969 24.53C149.726 25.0247 149.362 25.4073 148.877 25.678C148.391 25.9487 147.845 26.084 147.239 26.084ZM162.873 18.51C163.471 18.51 163.998 18.6267 164.455 18.86C164.913 19.0933 165.267 19.448 165.519 19.924C165.781 20.4 165.911 21.002 165.911 21.73V26H164.567V21.884C164.567 21.1653 164.399 20.624 164.063 20.26C163.727 19.896 163.256 19.714 162.649 19.714C162.201 19.714 161.809 19.8073 161.473 19.994C161.137 20.1807 160.876 20.456 160.689 20.82C160.512 21.184 160.423 21.6367 160.423 22.178V26H159.079V21.884C159.079 21.1653 158.911 20.624 158.575 20.26C158.249 19.896 157.777 19.714 157.161 19.714C156.723 19.714 156.335 19.8073 155.999 19.994C155.663 20.1807 155.402 20.456 155.215 20.82C155.029 21.184 154.935 21.6367 154.935 22.178V26H153.591V18.58H154.879V20.554L154.669 20.05C154.903 19.5647 155.262 19.1867 155.747 18.916C156.233 18.6453 156.797 18.51 157.441 18.51C158.151 18.51 158.762 18.6873 159.275 19.042C159.789 19.3873 160.125 19.9147 160.283 20.624L159.737 20.4C159.961 19.8307 160.353 19.3733 160.913 19.028C161.473 18.6827 162.127 18.51 162.873 18.51ZM171.688 26.084C170.895 26.084 170.195 25.9207 169.588 25.594C168.991 25.2673 168.524 24.8193 168.188 24.25C167.862 23.6807 167.698 23.0273 167.698 22.29C167.698 21.5527 167.857 20.8993 168.174 20.33C168.501 19.7607 168.944 19.3173 169.504 19C170.074 18.6733 170.713 18.51 171.422 18.51C172.141 18.51 172.776 18.6687 173.326 18.986C173.877 19.3033 174.306 19.7513 174.614 20.33C174.932 20.8993 175.09 21.5667 175.09 22.332C175.09 22.388 175.086 22.4533 175.076 22.528C175.076 22.6027 175.072 22.6727 175.062 22.738H168.748V21.772H174.362L173.816 22.108C173.826 21.632 173.728 21.2073 173.522 20.834C173.317 20.4607 173.032 20.1713 172.668 19.966C172.314 19.7513 171.898 19.644 171.422 19.644C170.956 19.644 170.54 19.7513 170.176 19.966C169.812 20.1713 169.528 20.4653 169.322 20.848C169.117 21.2213 169.014 21.6507 169.014 22.136V22.36C169.014 22.8547 169.126 23.298 169.35 23.69C169.584 24.0727 169.906 24.3713 170.316 24.586C170.727 24.8007 171.198 24.908 171.73 24.908C172.169 24.908 172.566 24.8333 172.92 24.684C173.284 24.5347 173.602 24.3107 173.872 24.012L174.614 24.88C174.278 25.272 173.858 25.5707 173.354 25.776C172.86 25.9813 172.304 26.084 171.688 26.084ZM170.358 17.502L172.262 15.682H173.97L171.618 17.502H170.358Z" fill="black"/>
<defs>
<linearGradient id="paint0_linear_723_12573" x1="96" y1="0.5" x2="96" y2="40.5" gradientUnits="userSpaceOnUse">
<stop stop-color="#9747FF"/>
<stop offset="0.223958" stop-color="#44AF69"/>
<stop offset="0.510417" stop-color="#F5B1B1"/>
<stop offset="0.791667" stop-color="#E05751"/>
<stop offset="0.927083" stop-color="#0066FF"/>
<stop offset="1" stop-color="#FEC924"/>
</linearGradient>
</defs>
</svg>
