<svg width="183" height="40" viewBox="0 0 183 40" fill="none" xmlns="http://www.w3.org/2000/svg">
<rect x="0.5" y="0.5" width="182" height="39" rx="19.5" fill="white"/>
<rect x="0.5" y="0.5" width="182" height="39" rx="19.5" stroke="url(#paint0_linear_566_350)"/>
<g clip-path="url(#clip0_566_350)">
<mask id="mask0_566_350" style="mask-type:luminance" maskUnits="userSpaceOnUse" x="8" y="8" width="24" height="24">
<path d="M8 8H32V32H8V8Z" fill="white"/>
<path fill-rule="evenodd" clip-rule="evenodd" d="M20.439 14.8518C19.0984 14.8518 17.8127 15.3844 16.8647 16.3323C15.9168 17.2803 15.3842 18.566 15.3842 19.9066C15.3842 21.2472 15.9168 22.5329 16.8647 23.4808C17.8127 24.4288 19.0984 24.9613 20.439 24.9613C21.7796 24.9613 23.0653 24.4288 24.0132 23.4808C24.9612 22.5329 25.4938 21.2472 25.4938 19.9066C25.4938 18.566 24.9612 17.2803 24.0132 16.3323C23.0653 15.3844 21.7796 14.8518 20.439 14.8518ZM13.5381 19.9075C13.5275 18.9946 13.6982 18.0887 14.0402 17.2422C14.3823 16.3958 14.8889 15.6256 15.5307 14.9763C16.1725 14.327 16.9368 13.8115 17.7792 13.4597C18.6217 13.1079 19.5256 12.9268 20.4385 12.9268C21.3515 12.9268 22.2554 13.1079 23.0978 13.4597C23.9403 13.8115 24.7045 14.327 25.3463 14.9763C25.9882 15.6256 26.4948 16.3958 26.8368 17.2422C27.1789 18.0887 27.3495 18.9946 27.339 19.9075C27.318 21.7238 26.5817 23.4586 25.2899 24.7355C23.9981 26.0125 22.2549 26.7286 20.4385 26.7286C18.6221 26.7286 16.8789 26.0125 15.5871 24.7355C14.2953 23.4586 13.5591 21.7238 13.5381 19.9075Z" fill="black"/>
<path fill-rule="evenodd" clip-rule="evenodd" d="M13.4348 23.9931C13.4459 23.9101 13.4856 23.7439 13.6268 23.4642C13.8899 22.9445 14.393 22.2679 15.1296 21.4916L13.7912 20.2196C12.9945 21.0587 12.3576 21.8839 11.9801 22.6316C11.6413 23.2999 11.3367 24.2608 11.8804 25.0556C12.3539 25.7479 13.1828 25.8808 13.8308 25.8642C14.5268 25.8467 15.3475 25.6565 16.217 25.3565C17.9681 24.7519 20.1281 23.6285 22.301 22.1433C24.4887 20.6479 26.1955 19.0344 27.2644 17.6073C27.7952 16.8984 28.1976 16.195 28.4062 15.5461C28.6056 14.9239 28.685 14.1522 28.2475 13.5125C27.941 13.0639 27.4813 12.8876 27.0668 12.8451C26.681 12.8054 26.2767 12.8728 25.9093 12.9633C25.2336 13.1313 24.401 13.4599 23.5352 13.8005L23.3099 13.8891L23.9856 15.607C24.0438 15.5848 24.1019 15.5608 24.1592 15.5396C25.0822 15.1759 25.8041 14.8925 26.3552 14.755C26.5102 14.7162 26.6293 14.6959 26.7161 14.6867C26.7031 14.7872 26.6803 14.8861 26.6478 14.9821C26.525 15.3651 26.249 15.8821 25.7865 16.5005C24.8662 17.7301 23.3219 19.2088 21.2589 20.6193C19.1819 22.039 17.1696 23.0747 15.6142 23.611C14.8296 23.8824 14.213 24.0079 13.7847 24.019C13.6675 24.0252 13.5499 24.0165 13.4348 23.9931Z" fill="black"/>
</mask>
<g mask="url(#mask0_566_350)">
<path d="M20 32C26.6274 32 32 26.6274 32 20C32 13.3726 26.6274 8 20 8C13.3726 8 8 13.3726 8 20C8 26.6274 13.3726 32 20 32Z" fill="black"/>
</g>
</g>
<path d="M40.2057 25.5L44.6437 15.7H46.0297L50.4817 25.5H49.0117L45.0497 16.484H45.6097L41.6477 25.5H40.2057ZM42.0957 23.05L42.4737 21.93H47.9897L48.3957 23.05H42.0957ZM53.3108 25.5L50.0628 18.08H51.4628L54.3468 24.8H53.6748L56.6148 18.08H57.9308L54.6828 25.5H53.3108ZM63.5587 25.5V23.932L63.4887 23.638V20.964C63.4887 20.3947 63.3207 19.956 62.9847 19.648C62.658 19.3307 62.1634 19.172 61.5007 19.172C61.062 19.172 60.6327 19.2467 60.2127 19.396C59.7927 19.536 59.438 19.7273 59.1487 19.97L58.5887 18.962C58.9714 18.654 59.4287 18.4207 59.9607 18.262C60.502 18.094 61.0667 18.01 61.6547 18.01C62.672 18.01 63.456 18.2573 64.0067 18.752C64.5574 19.2467 64.8327 20.0027 64.8327 21.02V25.5H63.5587ZM61.1227 25.584C60.572 25.584 60.0867 25.4907 59.6667 25.304C59.256 25.1173 58.9387 24.8607 58.7147 24.534C58.4907 24.198 58.3787 23.82 58.3787 23.4C58.3787 22.9987 58.472 22.6347 58.6587 22.308C58.8547 21.9813 59.1674 21.72 59.5967 21.524C60.0354 21.328 60.6234 21.23 61.3607 21.23H63.7127V22.196H61.4167C60.7447 22.196 60.292 22.308 60.0587 22.532C59.8254 22.756 59.7087 23.0267 59.7087 23.344C59.7087 23.708 59.8534 24.002 60.1427 24.226C60.432 24.4407 60.8334 24.548 61.3467 24.548C61.8507 24.548 62.2894 24.436 62.6627 24.212C63.0454 23.988 63.3207 23.6613 63.4887 23.232L63.7547 24.156C63.5774 24.5947 63.2647 24.9447 62.8167 25.206C62.3687 25.458 61.804 25.584 61.1227 25.584ZM67.3199 25.5V18.08H68.6639V25.5H67.3199ZM67.9919 16.652C67.7306 16.652 67.5112 16.568 67.3339 16.4C67.1659 16.232 67.0819 16.0267 67.0819 15.784C67.0819 15.532 67.1659 15.322 67.3339 15.154C67.5112 14.986 67.7306 14.902 67.9919 14.902C68.2532 14.902 68.4679 14.986 68.6359 15.154C68.8132 15.3127 68.9019 15.5133 68.9019 15.756C68.9019 16.008 68.8179 16.2227 68.6499 16.4C68.4819 16.568 68.2626 16.652 67.9919 16.652ZM71.2301 25.5V15.112H72.5741V25.5H71.2301ZM79.7462 25.5V23.932L79.6762 23.638V20.964C79.6762 20.3947 79.5082 19.956 79.1722 19.648C78.8455 19.3307 78.3509 19.172 77.6882 19.172C77.2495 19.172 76.8202 19.2467 76.4002 19.396C75.9802 19.536 75.6255 19.7273 75.3362 19.97L74.7762 18.962C75.1589 18.654 75.6162 18.4207 76.1482 18.262C76.6895 18.094 77.2542 18.01 77.8422 18.01C78.8595 18.01 79.6435 18.2573 80.1942 18.752C80.7449 19.2467 81.0202 20.0027 81.0202 21.02V25.5H79.7462ZM77.3102 25.584C76.7595 25.584 76.2742 25.4907 75.8542 25.304C75.4435 25.1173 75.1262 24.8607 74.9022 24.534C74.6782 24.198 74.5662 23.82 74.5662 23.4C74.5662 22.9987 74.6595 22.6347 74.8462 22.308C75.0422 21.9813 75.3549 21.72 75.7842 21.524C76.2229 21.328 76.8109 21.23 77.5482 21.23H79.9002V22.196H77.6042C76.9322 22.196 76.4795 22.308 76.2462 22.532C76.0129 22.756 75.8962 23.0267 75.8962 23.344C75.8962 23.708 76.0409 24.002 76.3302 24.226C76.6195 24.4407 77.0209 24.548 77.5342 24.548C78.0382 24.548 78.4769 24.436 78.8502 24.212C79.2329 23.988 79.5082 23.6613 79.6762 23.232L79.9422 24.156C79.7649 24.5947 79.4522 24.9447 79.0042 25.206C78.5562 25.458 77.9915 25.584 77.3102 25.584ZM87.4414 25.584C86.8067 25.584 86.2327 25.444 85.7194 25.164C85.2154 24.8747 84.8141 24.45 84.5154 23.89C84.2261 23.33 84.0814 22.63 84.0814 21.79C84.0814 20.95 84.2307 20.25 84.5294 19.69C84.8374 19.13 85.2434 18.71 85.7474 18.43C86.2607 18.15 86.8254 18.01 87.4414 18.01C88.1694 18.01 88.8134 18.1687 89.3734 18.486C89.9334 18.8033 90.3767 19.2467 90.7034 19.816C91.0301 20.376 91.1934 21.034 91.1934 21.79C91.1934 22.546 91.0301 23.2087 90.7034 23.778C90.3767 24.3473 89.9334 24.7907 89.3734 25.108C88.8134 25.4253 88.1694 25.584 87.4414 25.584ZM83.5074 25.5V15.112H84.8514V20.054L84.7114 21.776L84.7954 23.498V25.5H83.5074ZM87.3294 24.408C87.8054 24.408 88.2301 24.3007 88.6034 24.086C88.9861 23.8713 89.2847 23.568 89.4994 23.176C89.7234 22.7747 89.8354 22.3127 89.8354 21.79C89.8354 21.258 89.7234 20.8007 89.4994 20.418C89.2847 20.026 88.9861 19.7227 88.6034 19.508C88.2301 19.2933 87.8054 19.186 87.3294 19.186C86.8627 19.186 86.4381 19.2933 86.0554 19.508C85.6821 19.7227 85.3834 20.026 85.1594 20.418C84.9447 20.8007 84.8374 21.258 84.8374 21.79C84.8374 22.3127 84.9447 22.7747 85.1594 23.176C85.3834 23.568 85.6821 23.8713 86.0554 24.086C86.4381 24.3007 86.8627 24.408 87.3294 24.408ZM93.0504 25.5V15.112H94.3944V25.5H93.0504ZM100.265 25.584C99.4712 25.584 98.7712 25.4207 98.1645 25.094C97.5672 24.7673 97.1005 24.3193 96.7645 23.75C96.4379 23.1807 96.2745 22.5273 96.2745 21.79C96.2745 21.0527 96.4332 20.3993 96.7505 19.83C97.0772 19.2607 97.5205 18.8173 98.0805 18.5C98.6499 18.1733 99.2892 18.01 99.9985 18.01C100.717 18.01 101.352 18.1687 101.903 18.486C102.453 18.8033 102.883 19.2513 103.191 19.83C103.508 20.3993 103.667 21.0667 103.667 21.832C103.667 21.888 103.662 21.9533 103.653 22.028C103.653 22.1027 103.648 22.1727 103.639 22.238H97.3245V21.272H102.939L102.393 21.608C102.402 21.132 102.304 20.7073 102.099 20.334C101.893 19.9607 101.609 19.6713 101.245 19.466C100.89 19.2513 100.475 19.144 99.9985 19.144C99.5319 19.144 99.1165 19.2513 98.7525 19.466C98.3885 19.6713 98.1039 19.9653 97.8985 20.348C97.6932 20.7213 97.5905 21.1507 97.5905 21.636V21.86C97.5905 22.3547 97.7025 22.798 97.9265 23.19C98.1599 23.5727 98.4819 23.8713 98.8925 24.086C99.3032 24.3007 99.7745 24.408 100.307 24.408C100.745 24.408 101.142 24.3333 101.497 24.184C101.861 24.0347 102.178 23.8107 102.449 23.512L103.191 24.38C102.855 24.772 102.435 25.0707 101.931 25.276C101.436 25.4813 100.881 25.584 100.265 25.584ZM109.489 25.5V17.422C109.489 16.694 109.699 16.1153 110.119 15.686C110.548 15.2473 111.155 15.028 111.939 15.028C112.228 15.028 112.503 15.0653 112.765 15.14C113.035 15.2053 113.264 15.3127 113.451 15.462L113.045 16.484C112.905 16.372 112.746 16.288 112.569 16.232C112.391 16.1667 112.205 16.134 112.009 16.134C111.617 16.134 111.318 16.246 111.113 16.47C110.907 16.6847 110.805 17.0067 110.805 17.436V18.43L110.833 19.046V25.5H109.489ZM108.229 19.186V18.08H112.961V19.186H108.229ZM117.297 25.584C116.55 25.584 115.887 25.4207 115.309 25.094C114.73 24.7673 114.273 24.3193 113.937 23.75C113.601 23.1713 113.433 22.518 113.433 21.79C113.433 21.0527 113.601 20.3993 113.937 19.83C114.273 19.2607 114.73 18.8173 115.309 18.5C115.887 18.1733 116.55 18.01 117.297 18.01C118.034 18.01 118.692 18.1733 119.271 18.5C119.859 18.8173 120.316 19.2607 120.643 19.83C120.979 20.39 121.147 21.0433 121.147 21.79C121.147 22.5273 120.979 23.1807 120.643 23.75C120.316 24.3193 119.859 24.7673 119.271 25.094C118.692 25.4207 118.034 25.584 117.297 25.584ZM117.297 24.408C117.773 24.408 118.197 24.3007 118.571 24.086C118.953 23.8713 119.252 23.568 119.467 23.176C119.681 22.7747 119.789 22.3127 119.789 21.79C119.789 21.258 119.681 20.8007 119.467 20.418C119.252 20.026 118.953 19.7227 118.571 19.508C118.197 19.2933 117.773 19.186 117.297 19.186C116.821 19.186 116.396 19.2933 116.023 19.508C115.649 19.7227 115.351 20.026 115.127 20.418C114.903 20.8007 114.791 21.258 114.791 21.79C114.791 22.3127 114.903 22.7747 115.127 23.176C115.351 23.568 115.649 23.8713 116.023 24.086C116.396 24.3007 116.821 24.408 117.297 24.408ZM123.005 25.5V18.08H124.293V20.096L124.167 19.592C124.373 19.0787 124.718 18.6867 125.203 18.416C125.689 18.1453 126.286 18.01 126.995 18.01V19.312C126.939 19.3027 126.883 19.298 126.827 19.298C126.781 19.298 126.734 19.298 126.687 19.298C125.969 19.298 125.399 19.5127 124.979 19.942C124.559 20.3713 124.349 20.992 124.349 21.804V25.5H123.005ZM134.075 25.5L131.317 18.08H132.591L135.041 24.8H134.439L136.987 18.08H138.121L140.613 24.8H140.025L142.531 18.08H143.735L140.963 25.5H139.675L137.337 19.368H137.729L135.363 25.5H134.075ZM148.072 25.584C147.325 25.584 146.663 25.4207 146.084 25.094C145.505 24.7673 145.048 24.3193 144.712 23.75C144.376 23.1713 144.208 22.518 144.208 21.79C144.208 21.0527 144.376 20.3993 144.712 19.83C145.048 19.2607 145.505 18.8173 146.084 18.5C146.663 18.1733 147.325 18.01 148.072 18.01C148.809 18.01 149.467 18.1733 150.046 18.5C150.634 18.8173 151.091 19.2607 151.418 19.83C151.754 20.39 151.922 21.0433 151.922 21.79C151.922 22.5273 151.754 23.1807 151.418 23.75C151.091 24.3193 150.634 24.7673 150.046 25.094C149.467 25.4207 148.809 25.584 148.072 25.584ZM148.072 24.408C148.548 24.408 148.973 24.3007 149.346 24.086C149.729 23.8713 150.027 23.568 150.242 23.176C150.457 22.7747 150.564 22.3127 150.564 21.79C150.564 21.258 150.457 20.8007 150.242 20.418C150.027 20.026 149.729 19.7227 149.346 19.508C148.973 19.2933 148.548 19.186 148.072 19.186C147.596 19.186 147.171 19.2933 146.798 19.508C146.425 19.7227 146.126 20.026 145.902 20.418C145.678 20.8007 145.566 21.258 145.566 21.79C145.566 22.3127 145.678 22.7747 145.902 23.176C146.126 23.568 146.425 23.8713 146.798 24.086C147.171 24.3007 147.596 24.408 148.072 24.408ZM153.781 25.5V18.08H155.069V20.096L154.943 19.592C155.148 19.0787 155.494 18.6867 155.979 18.416C156.464 18.1453 157.062 18.01 157.771 18.01V19.312C157.715 19.3027 157.659 19.298 157.603 19.298C157.556 19.298 157.51 19.298 157.463 19.298C156.744 19.298 156.175 19.5127 155.755 19.942C155.335 20.3713 155.125 20.992 155.125 21.804V25.5H153.781ZM160.519 23.708L160.547 21.986L164.817 18.08H166.441L163.165 21.3L162.437 21.916L160.519 23.708ZM159.427 25.5V15.112H160.771V25.5H159.427ZM165.097 25.5L162.185 21.888L163.053 20.81L166.749 25.5H165.097Z" fill="black"/>
<defs>
<linearGradient id="paint0_linear_566_350" x1="91.5" y1="0" x2="91.5" y2="40" gradientUnits="userSpaceOnUse">
<stop stop-color="#9747FF"/>
<stop offset="0.223958" stop-color="#44AF69"/>
<stop offset="0.510417" stop-color="#F5B1B1"/>
<stop offset="0.791667" stop-color="#E05751"/>
<stop offset="0.927083" stop-color="#0066FF"/>
<stop offset="1" stop-color="#FEC924"/>
</linearGradient>
<clipPath id="clip0_566_350">
<rect width="24" height="24" fill="white" transform="translate(8 8)"/>
</clipPath>
</defs>
</svg>
