<svg width="20" height="20" viewBox="0 0 20 20" fill="none" xmlns="http://www.w3.org/2000/svg">
<path d="M12.625 7.00003C11.9863 6.99784 11.3534 7.12161 10.7626 7.36426C10.1718 7.60691 9.6346 7.96368 9.18181 8.41415C8.72901 8.86463 8.36949 9.39996 8.1238 9.98953C7.87811 10.5791 7.75109 11.2113 7.75 11.85V16.75C7.75 16.9489 7.82902 17.1397 7.96967 17.2804C8.11032 17.421 8.30109 17.5 8.5 17.5H10.25C10.4489 17.5 10.6397 17.421 10.7803 17.2804C10.921 17.1397 11 16.9489 11 16.75V11.85C10.9998 11.6229 11.0475 11.3982 11.14 11.1907C11.2325 10.9832 11.3677 10.7976 11.5367 10.6458C11.7058 10.4941 11.9049 10.3796 12.1211 10.31C12.3374 10.2404 12.5658 10.2171 12.7917 10.2417C13.1967 10.2927 13.5689 10.4906 13.8377 10.7978C14.1065 11.105 14.2532 11.5002 14.25 11.9084V16.75C14.25 16.9489 14.329 17.1397 14.4697 17.2804C14.6103 17.421 14.8011 17.5 15 17.5H16.75C16.9489 17.5 17.1397 17.421 17.2803 17.2804C17.421 17.1397 17.5 16.9489 17.5 16.75V11.85C17.4989 11.2113 17.3719 10.5791 17.1262 9.98953C16.8805 9.39996 16.521 8.86463 16.0682 8.41415C15.6154 7.96368 15.0782 7.60691 14.4874 7.36426C13.8966 7.12161 13.2637 6.99784 12.625 7.00003Z" fill="white"/>
<path d="M5.5 7.75H3.25C2.83579 7.75 2.5 8.08579 2.5 8.5V16.75C2.5 17.1642 2.83579 17.5 3.25 17.5H5.5C5.91421 17.5 6.25 17.1642 6.25 16.75V8.5C6.25 8.08579 5.91421 7.75 5.5 7.75Z" fill="white"/>
<path d="M4.375 6.25C5.41053 6.25 6.25 5.41053 6.25 4.375C6.25 3.33947 5.41053 2.5 4.375 2.5C3.33947 2.5 2.5 3.33947 2.5 4.375C2.5 5.41053 3.33947 6.25 4.375 6.25Z" fill="white"/>
</svg>
