<svg width="40" height="40" viewBox="0 0 40 40" fill="none" xmlns="http://www.w3.org/2000/svg">
<path d="M6.66781 33.3351C5.75114 33.3351 4.9667 33.009 4.31447 32.3568C3.66114 31.7035 3.33447 30.9185 3.33447 30.0018V10.0018C3.33447 9.08512 3.66114 8.30068 4.31447 7.64846C4.9667 6.99512 5.75114 6.66846 6.66781 6.66846H33.3345C34.2511 6.66846 35.0361 6.99512 35.6895 7.64846C36.3417 8.30068 36.6678 9.08512 36.6678 10.0018V30.0018C36.6678 30.9185 36.3417 31.7035 35.6895 32.3568C35.0361 33.009 34.2511 33.3351 33.3345 33.3351H6.66781ZM20.0011 21.3768C20.14 21.3768 20.2856 21.3557 20.4378 21.3135C20.5911 21.2723 20.7373 21.2101 20.8761 21.1268L32.6678 13.7518C32.89 13.6129 33.0567 13.4396 33.1678 13.2318C33.2789 13.0229 33.3345 12.7935 33.3345 12.5435C33.3345 11.9879 33.0984 11.5712 32.6261 11.2935C32.1539 11.0157 31.6678 11.0296 31.1678 11.3351L20.0011 18.3351L8.83447 11.3351C8.33447 11.0296 7.84836 11.0223 7.37614 11.3135C6.90392 11.6057 6.66781 12.0157 6.66781 12.5435C6.66781 12.8212 6.72336 13.064 6.83447 13.2718C6.94558 13.4807 7.11225 13.6407 7.33447 13.7518L19.1261 21.1268C19.265 21.2101 19.4111 21.2723 19.5645 21.3135C19.7167 21.3557 19.8623 21.3768 20.0011 21.3768Z" fill="#8F8F8F"/>
</svg>
