<svg width="40" height="40" viewBox="0 0 40 40" fill="none" xmlns="http://www.w3.org/2000/svg">
<path d="M37.4336 9.99984C36.1502 10.5832 34.7669 10.9665 33.3336 11.1498C34.8002 10.2665 35.9336 8.8665 36.4669 7.18317C35.0836 8.0165 33.5502 8.59984 31.9336 8.93317C30.6169 7.49984 28.7669 6.6665 26.6669 6.6665C22.7502 6.6665 19.5502 9.8665 19.5502 13.8165C19.5502 14.3832 19.6169 14.9332 19.7336 15.4498C13.8002 15.1498 8.51689 12.2998 5.00023 7.98317C4.38356 9.03317 4.03356 10.2665 4.03356 11.5665C4.03356 14.0498 5.28356 16.2498 7.21689 17.4998C6.03356 17.4998 4.93356 17.1665 3.96689 16.6665V16.7165C3.96689 20.1832 6.43356 23.0832 9.70023 23.7332C8.65144 24.0202 7.55039 24.0601 6.48356 23.8498C6.93624 25.2706 7.82279 26.5139 9.01859 27.4047C10.2144 28.2956 11.6593 28.7893 13.1502 28.8165C10.6229 30.8172 7.49022 31.8987 4.26689 31.8832C3.70023 31.8832 3.13356 31.8498 2.56689 31.7832C5.73356 33.8165 9.50023 34.9998 13.5336 34.9998C26.6669 34.9998 33.8836 24.0998 33.8836 14.6498C33.8836 14.3332 33.8836 14.0332 33.8669 13.7165C35.2669 12.7165 36.4669 11.4498 37.4336 9.99984Z" fill="#8F8F8F"/>
</svg>
