<svg width="40" height="40" viewBox="0 0 40 40" fill="none" xmlns="http://www.w3.org/2000/svg">
<path d="M20.0011 3.33252C24.5295 3.33252 25.0945 3.34919 26.8711 3.43252C28.6461 3.51585 29.8545 3.79419 30.9178 4.20752C32.0178 4.63085 32.9445 5.20419 33.8711 6.12919C34.7186 6.96235 35.3744 7.97017 35.7928 9.08252C36.2045 10.1442 36.4845 11.3542 36.5678 13.1292C36.6461 14.9059 36.6678 15.4709 36.6678 19.9992C36.6678 24.5275 36.6511 25.0925 36.5678 26.8692C36.4845 28.6442 36.2045 29.8525 35.7928 30.9159C35.3756 32.0288 34.7197 33.0369 33.8711 33.8692C33.0377 34.7164 32.03 35.3721 30.9178 35.7909C29.8561 36.2025 28.6461 36.4825 26.8711 36.5659C25.0945 36.6442 24.5295 36.6659 20.0011 36.6659C15.4728 36.6659 14.9078 36.6492 13.1311 36.5659C11.3561 36.4825 10.1478 36.2025 9.08447 35.7909C7.97168 35.3733 6.96368 34.7174 6.13114 33.8692C5.28348 33.0362 4.62769 32.0283 4.20947 30.9159C3.79614 29.8542 3.51781 28.6442 3.43447 26.8692C3.35614 25.0925 3.33447 24.5275 3.33447 19.9992C3.33447 15.4709 3.35114 14.9059 3.43447 13.1292C3.51781 11.3525 3.79614 10.1459 4.20947 9.08252C4.62653 7.96949 5.28248 6.96139 6.13114 6.12919C6.96392 5.28124 7.97185 4.6254 9.08447 4.20752C10.1478 3.79419 11.3545 3.51585 13.1311 3.43252C14.9078 3.35419 15.4728 3.33252 20.0011 3.33252ZM20.0011 11.6659C17.791 11.6659 15.6714 12.5438 14.1086 14.1066C12.5458 15.6694 11.6678 17.789 11.6678 19.9992C11.6678 22.2093 12.5458 24.3289 14.1086 25.8917C15.6714 27.4545 17.791 28.3325 20.0011 28.3325C22.2113 28.3325 24.3309 27.4545 25.8937 25.8917C27.4565 24.3289 28.3345 22.2093 28.3345 19.9992C28.3345 17.789 27.4565 15.6694 25.8937 14.1066C24.3309 12.5438 22.2113 11.6659 20.0011 11.6659ZM30.8345 11.2492C30.8345 10.6967 30.615 10.1667 30.2243 9.77605C29.8336 9.38535 29.3037 9.16585 28.7511 9.16585C28.1986 9.16585 27.6687 9.38535 27.278 9.77605C26.8873 10.1667 26.6678 10.6967 26.6678 11.2492C26.6678 11.8017 26.8873 12.3316 27.278 12.7223C27.6687 13.113 28.1986 13.3325 28.7511 13.3325C29.3037 13.3325 29.8336 13.113 30.2243 12.7223C30.615 12.3316 30.8345 11.8017 30.8345 11.2492ZM20.0011 14.9992C21.3272 14.9992 22.599 15.526 23.5367 16.4637C24.4744 17.4013 25.0011 18.6731 25.0011 19.9992C25.0011 21.3253 24.4744 22.597 23.5367 23.5347C22.599 24.4724 21.3272 24.9992 20.0011 24.9992C18.6751 24.9992 17.4033 24.4724 16.4656 23.5347C15.5279 22.597 15.0011 21.3253 15.0011 19.9992C15.0011 18.6731 15.5279 17.4013 16.4656 16.4637C17.4033 15.526 18.6751 14.9992 20.0011 14.9992Z" fill="#8F8F8F"/>
</svg>
