<svg width="40" height="40" viewBox="0 0 40 40" fill="none" xmlns="http://www.w3.org/2000/svg">
<path d="M10.2722 4.00182C6.82406 4.00182 4.00195 6.82377 4.00195 10.2719V29.729C4.00195 33.177 6.824 35.998 10.2722 35.998H29.7299C33.1781 35.998 35.9992 33.177 35.9992 29.729V10.2719C35.9992 6.82384 33.1781 4.00182 29.7299 4.00182H10.2722ZM11.8493 9.28183C13.5026 9.28183 14.521 10.3672 14.5524 11.7938C14.5524 13.189 13.5025 14.3048 11.8173 14.3048H11.7863C10.1644 14.3048 9.11616 13.1891 9.11616 11.7938C9.11616 10.3672 10.1962 9.28183 11.8492 9.28183H11.8493ZM26.0968 15.9499C29.2765 15.9499 31.66 18.028 31.66 22.4939V30.8309H26.8279V23.0529C26.8279 21.0983 26.1285 19.7648 24.3798 19.7648C23.0448 19.7648 22.249 20.6636 21.8997 21.5319C21.772 21.8425 21.7407 22.2763 21.7407 22.7109V30.8309H16.9085C16.9085 30.8309 16.9719 17.6551 16.9085 16.2908H21.7417V18.3499C22.3838 17.3591 23.5324 15.9498 26.0968 15.9498V15.9499ZM9.40119 16.2919H14.2334V30.831H9.40119V16.2919Z" fill="#8F8F8F"/>
</svg>
