<svg width="355" height="339" viewBox="0 0 355 339" fill="none" xmlns="http://www.w3.org/2000/svg">
<rect x="10" y="10" width="300" height="300" stroke="#9796F0" stroke-width="4"/>
<rect x="129.486" y="321.725" width="55.0481" height="17" rx="2.01605" fill="#9796F0"/>
<path d="M136.019 333.835C135.526 333.835 135.082 333.74 134.688 333.551C134.297 333.36 133.985 333.097 133.751 332.764C133.518 332.43 133.393 332.05 133.377 331.622H134.559C134.587 331.968 134.741 332.253 135.019 332.476C135.297 332.7 135.631 332.811 136.019 332.811C136.329 332.811 136.603 332.74 136.842 332.598C137.084 332.454 137.273 332.256 137.409 332.004C137.548 331.752 137.618 331.464 137.618 331.142C137.618 330.813 137.547 330.521 137.405 330.263C137.264 330.006 137.068 329.804 136.819 329.657C136.572 329.51 136.288 329.435 135.968 329.433C135.724 329.433 135.479 329.475 135.232 329.559C134.985 329.643 134.786 329.753 134.633 329.889L133.519 329.724L133.972 325.66H138.406V326.704H134.984L134.728 328.96H134.775C134.933 328.808 135.141 328.681 135.401 328.578C135.664 328.476 135.945 328.425 136.244 328.425C136.735 328.425 137.172 328.541 137.555 328.775C137.941 329.009 138.244 329.328 138.465 329.732C138.688 330.134 138.798 330.596 138.795 331.118C138.798 331.64 138.68 332.106 138.441 332.516C138.205 332.925 137.877 333.248 137.457 333.484C137.039 333.718 136.56 333.835 136.019 333.835ZM143.404 325.66V333.725H142.183V326.881H142.136L140.207 328.141V326.976L142.219 325.66H143.404ZM148.756 325.66V333.725H147.535V326.881H147.488L145.558 328.141V326.976L147.571 325.66H148.756ZM158.901 332.386L154.373 327.858L155.117 327.113L159.645 331.642L158.901 332.386ZM155.117 332.386L154.373 331.642L158.901 327.113L159.645 327.858L155.117 332.386ZM167.297 333.835C166.803 333.835 166.359 333.74 165.966 333.551C165.574 333.36 165.262 333.097 165.028 332.764C164.795 332.43 164.67 332.05 164.654 331.622H165.836C165.865 331.968 166.018 332.253 166.296 332.476C166.575 332.7 166.908 332.811 167.297 332.811C167.606 332.811 167.881 332.74 168.119 332.598C168.361 332.454 168.55 332.256 168.686 332.004C168.826 331.752 168.895 331.464 168.895 331.142C168.895 330.813 168.824 330.521 168.683 330.263C168.541 330.006 168.345 329.804 168.096 329.657C167.849 329.51 167.566 329.435 167.245 329.433C167.001 329.433 166.756 329.475 166.509 329.559C166.262 329.643 166.063 329.753 165.91 329.889L164.796 329.724L165.249 325.66H169.683V326.704H166.261L166.005 328.96H166.052C166.21 328.808 166.418 328.681 166.678 328.578C166.941 328.476 167.222 328.425 167.521 328.425C168.012 328.425 168.449 328.541 168.832 328.775C169.218 329.009 169.521 329.328 169.742 329.732C169.965 330.134 170.075 330.596 170.073 331.118C170.075 331.64 169.957 332.106 169.718 332.516C169.482 332.925 169.154 333.248 168.734 333.484C168.316 333.718 167.837 333.835 167.297 333.835ZM174.681 325.66V333.725H173.46V326.881H173.413L171.484 328.141V326.976L173.496 325.66H174.681ZM180.033 325.66V333.725H178.812V326.881H178.765L176.836 328.141V326.976L178.848 325.66H180.033Z" fill="white"/>
<rect x="2" y="2" width="16" height="16" fill="white" stroke="#9796F0" stroke-width="4" stroke-linecap="square"/>
<rect x="2" y="302" width="16" height="16" fill="white" stroke="#9796F0" stroke-width="4" stroke-linecap="square"/>
<rect x="302" y="2" width="16" height="16" fill="white" stroke="#9796F0" stroke-width="4" stroke-linecap="square"/>
<rect x="302" y="302" width="16" height="16" fill="white" stroke="#9796F0" stroke-width="4" stroke-linecap="square"/>
<g filter="url(#filter0_d_685_12502)">
<circle cx="336.471" cy="248.7" r="11.6955" fill="#16C36C"/>
<circle cx="336.471" cy="248.7" r="12.5309" stroke="white" stroke-opacity="0.8" stroke-width="1.67079" stroke-linejoin="round"/>
</g>
<path fill-rule="evenodd" clip-rule="evenodd" d="M338.142 242.017H334.8V247.03H329.788V250.371H334.8V255.384H338.142V250.371H343.154V247.03H338.142V242.017Z" fill="white"/>
<g filter="url(#filter1_d_685_12502)">
<path fill-rule="evenodd" clip-rule="evenodd" d="M311.409 223.639L318.092 243.688L321.434 235.334L331.459 231.993L311.409 223.639Z" fill="#1F1F1F"/>
<path d="M311.73 222.868C311.428 222.742 311.08 222.804 310.84 223.027C310.601 223.25 310.513 223.592 310.617 223.903L317.3 243.952C317.411 244.285 317.717 244.513 318.068 244.523C318.418 244.534 318.738 244.324 318.868 243.998L322.066 236.004L331.723 232.785C332.053 232.675 332.281 232.371 332.294 232.023C332.306 231.675 332.102 231.355 331.78 231.221L311.73 222.868Z" stroke="white" stroke-opacity="0.8" stroke-width="1.67079" stroke-linejoin="round"/>
</g>
<g clip-path="url(#clip0_685_12502)">
<path d="M237.881 112.695L207.581 82.395C196.081 70.895 180.381 71.4951 172.681 83.7951L155.781 110.495L209.781 164.495L236.481 147.595C247.981 140.295 248.681 123.495 237.881 112.695Z" stroke="#353535" stroke-width="15" stroke-linecap="round" stroke-linejoin="round"/>
<path d="M155.792 110.495L116.492 108.095C94.5921 106.795 86.8921 113.495 84.4921 134.395L74.6921 217.595C72.5921 235.095 85.2921 247.695 102.692 245.595L185.892 235.795C206.792 233.295 214.392 225.695 212.192 203.795L209.892 164.495" stroke="#353535" stroke-width="15" stroke-linecap="round" stroke-linejoin="round"/>
<path d="M86.0664 234.193L116.366 203.793" stroke="#353535" stroke-width="15" stroke-linecap="round" stroke-linejoin="round"/>
</g>
<defs>
<filter id="filter0_d_685_12502" x="318.092" y="231.992" width="36.7577" height="36.7574" filterUnits="userSpaceOnUse" color-interpolation-filters="sRGB">
<feFlood flood-opacity="0" result="BackgroundImageFix"/>
<feColorMatrix in="SourceAlpha" type="matrix" values="0 0 0 0 0 0 0 0 0 0 0 0 0 0 0 0 0 0 127 0" result="hardAlpha"/>
<feOffset dy="1.67079"/>
<feGaussianBlur stdDeviation="2.50619"/>
<feColorMatrix type="matrix" values="0 0 0 0 0 0 0 0 0 0 0 0 0 0 0 0 0 0 0.25 0"/>
<feBlend mode="normal" in2="BackgroundImageFix" result="effect1_dropShadow_685_12502"/>
<feBlend mode="normal" in="SourceGraphic" in2="effect1_dropShadow_685_12502" result="shape"/>
</filter>
<filter id="filter1_d_685_12502" x="304.726" y="218.626" width="33.4159" height="33.4159" filterUnits="userSpaceOnUse" color-interpolation-filters="sRGB">
<feFlood flood-opacity="0" result="BackgroundImageFix"/>
<feColorMatrix in="SourceAlpha" type="matrix" values="0 0 0 0 0 0 0 0 0 0 0 0 0 0 0 0 0 0 127 0" result="hardAlpha"/>
<feOffset dy="1.67079"/>
<feGaussianBlur stdDeviation="2.50619"/>
<feColorMatrix type="matrix" values="0 0 0 0 0 0 0 0 0 0 0 0 0 0 0 0 0 0 0.25 0"/>
<feBlend mode="normal" in2="BackgroundImageFix" result="effect1_dropShadow_685_12502"/>
<feBlend mode="normal" in="SourceGraphic" in2="effect1_dropShadow_685_12502" result="shape"/>
</filter>
<clipPath id="clip0_685_12502">
<rect width="240" height="240" fill="white" transform="translate(39.9883 39.9941)"/>
</clipPath>
</defs>
</svg>
