<svg width="50" height="50" viewBox="0 0 50 50" fill="none" xmlns="http://www.w3.org/2000/svg">
<rect width="50" height="50" rx="18" fill="url(#paint0_linear_1916_3273)"/>
<rect width="50" height="50" rx="18" fill="black" fill-opacity="0.2"/>
<rect width="50" height="50" rx="18" fill="black" fill-opacity="0.2"/>
<rect width="50" height="50" rx="18" fill="black" fill-opacity="0.2"/>
<path d="M35.9605 34.12C35.9338 34.2 35.9205 34.28 35.9205 34.36C35.9471 34.4133 35.9338 34.4533 35.8805 34.48C35.5605 34.8533 35.2271 35.24 34.8805 35.64C34.5605 36.04 34.2405 36.4533 33.9205 36.88L33.5605 37.24C33.4271 37.2667 33.2805 37.28 33.1205 37.28C32.9871 37.28 32.8405 37.2933 32.6805 37.32C32.5738 37.3467 32.4538 37.3733 32.3205 37.4C32.2138 37.4533 32.1071 37.5067 32.0005 37.56C31.7605 37.48 31.5471 37.3867 31.3605 37.28C31.1738 37.2 31.0138 37.0667 30.8805 36.88C30.8538 36.7733 30.7738 36.68 30.6405 36.6C30.2405 36.3067 29.8405 36.0133 29.4405 35.72C29.0405 35.4 28.6138 35.1333 28.1605 34.92C28.0538 34.8667 27.9471 34.8133 27.8405 34.76C27.7338 34.7067 27.6138 34.64 27.4805 34.56C27.3471 34.5067 27.2005 34.44 27.0405 34.36C26.8805 34.28 26.6938 34.2 26.4805 34.12C26.3738 34.0133 26.2405 33.9067 26.0805 33.8C25.9471 33.6667 25.8138 33.5333 25.6805 33.4C25.4405 33.1333 25.1338 32.9067 24.7605 32.72C24.6005 32.6667 24.4538 32.5867 24.3205 32.48C24.1871 32.3467 24.0538 32.2267 23.9205 32.12C23.5738 31.9333 23.2405 31.7867 22.9205 31.68C22.7071 31.4133 22.5338 31.1867 22.4005 31C22.1871 30.8667 21.9471 30.84 21.6805 30.92C21.6538 30.9467 21.6271 30.9867 21.6005 31.04C21.5738 31.0667 21.5605 31.1067 21.5605 31.16C21.4805 31.7467 21.3871 32.36 21.2805 33C21.2005 33.6133 21.1071 34.2267 21.0005 34.84C21.0538 34.8933 21.0938 34.96 21.1205 35.04C21.1738 35.12 21.2271 35.2 21.2805 35.28C21.3338 35.52 21.3338 35.7733 21.2805 36.04C21.2538 36.28 21.2671 36.52 21.3205 36.76C21.3471 37 21.3471 37.24 21.3205 37.48C21.3205 37.72 21.3205 37.96 21.3205 38.2C21.3205 38.4667 21.2005 38.6 20.9605 38.6C20.6671 38.5733 20.3871 38.5733 20.1205 38.6C19.8538 38.6533 19.5738 38.7067 19.2805 38.76C18.8538 38.7867 18.4138 38.8 17.9605 38.8C17.5338 38.8267 17.1205 38.8533 16.7205 38.88C16.4538 38.88 16.2005 38.84 15.9605 38.76C15.7205 38.68 15.4805 38.5867 15.2405 38.48C14.9205 38.3733 14.7471 38.1867 14.7205 37.92C14.6938 37.7067 14.6671 37.48 14.6405 37.24C14.6405 37.0267 14.6138 36.8267 14.5605 36.64C14.5338 36.4267 14.5471 36.2267 14.6005 36.04C14.6538 35.8533 14.6938 35.6667 14.7205 35.48C14.6671 35.2667 14.6005 35.0667 14.5205 34.88C14.4671 34.6933 14.4405 34.48 14.4405 34.24C14.4938 34.1333 14.5071 34.04 14.4805 33.96C14.4538 33.88 14.4271 33.8 14.4005 33.72C14.2938 33.5067 14.2271 33.28 14.2005 33.04C14.2005 32.8 14.2138 32.5733 14.2405 32.36C14.2671 32.0667 14.2671 31.7867 14.2405 31.52C14.2138 31.2533 14.1471 31.0133 14.0405 30.8C14.0671 30.56 14.0938 30.3467 14.1205 30.16C14.1738 29.9467 14.2005 29.7467 14.2005 29.56C14.2005 29.4 14.2271 29.24 14.2805 29.08C14.3338 28.8933 14.3471 28.7067 14.3205 28.52C14.2938 28.3333 14.2671 28.1467 14.2405 27.96C14.2405 27.7733 14.2405 27.5867 14.2405 27.4C14.2405 26.7067 14.2271 26.04 14.2005 25.4C14.2005 24.7333 14.2005 24.0667 14.2005 23.4C14.2538 22.9467 14.2005 22.5333 14.0405 22.16C14.2005 21.9467 14.3205 21.7467 14.4005 21.56C14.5071 21.3467 14.6671 21.16 14.8805 21C14.9605 20.92 14.8805 20.84 14.6405 20.76C14.6138 20.76 14.5871 20.76 14.5605 20.76C14.5605 20.7333 14.5471 20.72 14.5205 20.72C14.4138 20.5333 14.3871 20.3467 14.4405 20.16C14.4938 19.9467 14.4938 19.7467 14.4405 19.56C14.4138 19.3467 14.4405 19.16 14.5205 19C14.6271 18.84 14.6805 18.6667 14.6805 18.48C14.6538 18.3467 14.6271 18.2267 14.6005 18.12C14.6005 18.0133 14.5871 17.9067 14.5605 17.8C14.5871 17.72 14.6005 17.6267 14.6005 17.52C14.6271 17.3867 14.6538 17.2667 14.6805 17.16C14.5205 16.5467 14.4271 15.9333 14.4005 15.32C14.4005 14.7067 14.4005 14.0933 14.4005 13.48C14.4005 13.32 14.4405 13.16 14.5205 13C14.5205 12.8933 14.5471 12.8133 14.6005 12.76C14.6538 12.68 14.7071 12.6133 14.7605 12.56C15.1605 12.4 15.5605 12.2533 15.9605 12.12C16.3605 11.96 16.7738 11.8933 17.2005 11.92C17.4138 11.9467 17.6405 11.92 17.8805 11.84C18.1738 11.7067 18.4671 11.6533 18.7605 11.68C19.0538 11.68 19.3471 11.7067 19.6405 11.76C19.8538 11.8133 20.0538 11.88 20.2405 11.96C20.4271 12.0133 20.6005 12.12 20.7605 12.28C20.9738 12.3067 21.1605 12.28 21.3205 12.2C21.5071 12.0933 21.6938 12.04 21.8805 12.04C21.9071 12.0667 21.9338 12.08 21.9605 12.08C22.0138 12.08 22.0405 12.1067 22.0405 12.16C22.2538 12.5067 22.3605 12.88 22.3605 13.28C22.3338 13.44 22.3338 13.6133 22.3605 13.8C22.4138 13.96 22.4671 14.1467 22.5205 14.36C22.4671 14.52 22.4271 14.7067 22.4005 14.92C22.3738 15.1067 22.3338 15.3067 22.2805 15.52C22.2538 15.8133 22.2538 16.12 22.2805 16.44C22.3071 16.6533 22.3205 16.88 22.3205 17.12C22.3205 17.36 22.3205 17.5867 22.3205 17.8C22.3205 17.88 22.3071 17.96 22.2805 18.04C22.2538 18.0933 22.2405 18.1467 22.2405 18.2C22.1071 18.4933 22.0271 18.7333 22.0005 18.92C22.0005 19.08 22.0005 19.24 22.0005 19.4C22.0005 19.5333 22.0138 19.68 22.0405 19.84C22.0405 19.8667 22.0271 19.92 22.0005 20C21.9738 20.08 21.9738 20.1467 22.0005 20.2C22.0538 20.4667 22.0805 20.7467 22.0805 21.04C22.0805 21.3067 22.0938 21.5867 22.1205 21.88C22.1205 22.0667 22.2005 22.2 22.3605 22.28C22.5205 22.2533 22.6671 22.1867 22.8005 22.08C22.9338 21.9733 23.0938 21.92 23.2805 21.92C23.5738 21.68 23.8538 21.48 24.1205 21.32C24.2271 21.2667 24.3205 21.2267 24.4005 21.2C24.5071 21.1733 24.6138 21.1467 24.7205 21.12C24.8805 21.04 24.9871 20.92 25.0405 20.76C25.1205 20.5733 25.2138 20.4267 25.3205 20.32C25.9071 19.8933 26.4271 19.44 26.8805 18.96C27.0138 18.8267 27.1605 18.6933 27.3205 18.56C27.5071 18.4 27.6805 18.2667 27.8405 18.16C27.8938 18.1067 27.9471 18.0667 28.0005 18.04C28.0538 17.9867 28.0938 17.9467 28.1205 17.92C28.4671 17.4667 28.8805 17.0933 29.3605 16.8C29.8405 16.5067 30.2671 16.2 30.6405 15.88C30.9338 15.8267 31.2138 15.7733 31.4805 15.72C31.7471 15.64 32.0005 15.5867 32.2405 15.56C32.6938 15.6133 32.9738 15.7867 33.0805 16.08C33.1338 16.1867 33.1871 16.28 33.2405 16.36C33.3205 16.44 33.3871 16.5333 33.4405 16.64C33.7338 16.9333 34.0271 17.24 34.3205 17.56C34.6138 17.88 34.9071 18.2 35.2005 18.52C35.2805 18.6 35.3471 18.6933 35.4005 18.8C35.4805 18.9067 35.5471 19.0133 35.6005 19.12C35.6538 19.2267 35.6538 19.32 35.6005 19.4C35.5738 19.48 35.5338 19.5467 35.4805 19.6C35.3205 19.76 35.1471 19.9333 34.9605 20.12C34.8005 20.28 34.6005 20.4 34.3605 20.48C34.3071 20.5067 34.2538 20.5467 34.2005 20.6C34.1471 20.6267 34.0938 20.6533 34.0405 20.68C33.9071 20.7867 33.7871 20.9067 33.6805 21.04C33.6005 21.1467 33.5738 21.2933 33.6005 21.48C33.5205 21.5867 33.4405 21.6667 33.3605 21.72L32.4005 22.56C32.4005 22.56 32.3738 22.5867 32.3205 22.64C31.9205 22.8267 31.5471 23.0533 31.2005 23.32C30.8805 23.56 30.5338 23.7867 30.1605 24C29.7605 24.1867 29.3871 24.4133 29.0405 24.68C28.7205 24.9467 28.4405 25.2667 28.2005 25.64C28.1471 25.7733 28.0538 25.88 27.9205 25.96C27.7871 26.04 27.6938 26.16 27.6405 26.32C27.6405 26.4533 27.6671 26.5333 27.7205 26.56C27.7738 26.5867 27.8405 26.6267 27.9205 26.68C28.0005 26.7333 28.0805 26.7867 28.1605 26.84C28.4005 26.9467 28.6138 27.0933 28.8005 27.28C28.9871 27.44 29.1605 27.6267 29.3205 27.84C29.5071 28.1067 29.7205 28.36 29.9605 28.6C30.2271 28.8133 30.5071 29.0267 30.8005 29.24C30.8805 29.2933 30.9738 29.3733 31.0805 29.48C31.1871 29.56 31.2938 29.64 31.4005 29.72C31.5871 29.9867 31.8005 30.2133 32.0405 30.4C32.3071 30.5867 32.5605 30.7733 32.8005 30.96C32.9605 31.0667 33.1205 31.1867 33.2805 31.32C33.4671 31.4533 33.6538 31.5867 33.8405 31.72C33.9738 31.9067 34.0938 32.12 34.2005 32.36C34.3071 32.6 34.5071 32.7467 34.8005 32.8C34.9605 33.0933 35.1071 33.3733 35.2405 33.64C35.3738 33.9067 35.6138 34.0667 35.9605 34.12Z" fill="white"/>
<defs>
<linearGradient id="paint0_linear_1916_3273" x1="25" y1="0" x2="25" y2="50" gradientUnits="userSpaceOnUse">
<stop stop-color="#9796F0"/>
<stop offset="0.5" stop-color="#77C6D9"/>
<stop offset="1" stop-color="#FFB84F"/>
</linearGradient>
</defs>
</svg>
