<svg width="28" height="28" viewBox="0 0 28 28" fill="none" xmlns="http://www.w3.org/2000/svg">
<rect width="28" height="28" rx="14" fill="white"/>
<path d="M13.437 10.0589L14.563 8.93284C15.1603 8.33555 15.9704 8 16.8151 8C17.6598 8 18.4699 8.33555 19.0672 8.93284C19.6644 9.53013 20 10.3402 20 11.1849C20 12.0296 19.6644 12.8397 19.0672 13.437L17.9411 14.563M14.563 17.9411L13.437 19.0672C12.8397 19.6644 12.0296 20 11.1849 20C10.3402 20 9.53013 19.6644 8.93284 19.0672C8.33555 18.4699 8 17.6598 8 16.8151C8 15.9704 8.33555 15.1603 8.93284 14.563L10.0589 13.437M11.1849 16.8151L16.8151 11.1849" stroke="#1F1F1F" stroke-linecap="round" stroke-linejoin="round"/>
</svg>
