<svg width="20" height="20" viewBox="0 0 20 20" fill="none" xmlns="http://www.w3.org/2000/svg">
<path d="M14.4498 4.54984C14.2521 4.54984 14.0587 4.60849 13.8943 4.71837C13.7298 4.82825 13.6016 4.98443 13.526 5.16715C13.4503 5.34988 13.4305 5.55095 13.469 5.74493C13.5076 5.93891 13.6029 6.11709 13.7427 6.25694C13.8826 6.3968 14.0608 6.49204 14.2547 6.53062C14.4487 6.56921 14.6498 6.5494 14.8325 6.47372C15.0152 6.39803 15.1714 6.26986 15.2813 6.10541C15.3912 5.94096 15.4498 5.74762 15.4498 5.54984C15.4498 5.28462 15.3445 5.03027 15.1569 4.84273C14.9694 4.65519 14.7151 4.54984 14.4498 4.54984ZM18.2832 6.5665C18.267 5.87509 18.1375 5.19101 17.8998 4.5415C17.6879 3.98578 17.3582 3.48257 16.9332 3.0665C16.5205 2.63936 16.0161 2.31165 15.4582 2.10817C14.8104 1.8633 14.1255 1.73085 13.4332 1.7165C12.5498 1.6665 12.2665 1.6665 9.99984 1.6665C7.73317 1.6665 7.44984 1.6665 6.5665 1.7165C5.87413 1.73085 5.18929 1.8633 4.5415 2.10817C3.98457 2.31371 3.48062 2.64114 3.0665 3.0665C2.63936 3.47915 2.31165 3.98354 2.10817 4.5415C1.8633 5.18929 1.73085 5.87413 1.7165 6.5665C1.6665 7.44984 1.6665 7.73317 1.6665 9.99984C1.6665 12.2665 1.6665 12.5498 1.7165 13.4332C1.73085 14.1255 1.8633 14.8104 2.10817 15.4582C2.31165 16.0161 2.63936 16.5205 3.0665 16.9332C3.48062 17.3585 3.98457 17.686 4.5415 17.8915C5.18929 18.1364 5.87413 18.2688 6.5665 18.2832C7.44984 18.3332 7.73317 18.3332 9.99984 18.3332C12.2665 18.3332 12.5498 18.3332 13.4332 18.2832C14.1255 18.2688 14.8104 18.1364 15.4582 17.8915C16.0161 17.688 16.5205 17.3603 16.9332 16.9332C17.36 16.5187 17.6901 16.015 17.8998 15.4582C18.1375 14.8087 18.267 14.1246 18.2832 13.4332C18.2832 12.5498 18.3332 12.2665 18.3332 9.99984C18.3332 7.73317 18.3332 7.44984 18.2832 6.5665ZM16.7832 13.3332C16.7771 13.8621 16.6813 14.3863 16.4998 14.8832C16.3668 15.2458 16.1531 15.5735 15.8748 15.8415C15.6045 16.1169 15.2775 16.3302 14.9165 16.4665C14.4196 16.648 13.8955 16.7438 13.3665 16.7498C12.5332 16.7915 12.2248 16.7998 10.0332 16.7998C7.8415 16.7998 7.53317 16.7998 6.69984 16.7498C6.15058 16.7601 5.60367 16.6755 5.08317 16.4998C4.73799 16.3566 4.42597 16.1438 4.1665 15.8748C3.88991 15.6071 3.67887 15.2792 3.54984 14.9165C3.34638 14.4125 3.23354 13.8765 3.2165 13.3332C3.2165 12.4998 3.1665 12.1915 3.1665 9.99984C3.1665 7.80817 3.1665 7.49984 3.2165 6.6665C3.22024 6.12572 3.31896 5.58979 3.50817 5.08317C3.65488 4.73143 3.88006 4.41789 4.1665 4.1665C4.41968 3.87998 4.73258 3.65242 5.08317 3.49984C5.59113 3.31654 6.1265 3.22074 6.6665 3.2165C7.49984 3.2165 7.80817 3.1665 9.99984 3.1665C12.1915 3.1665 12.4998 3.1665 13.3332 3.2165C13.8621 3.22257 14.3863 3.31838 14.8832 3.49984C15.2619 3.64038 15.6017 3.86888 15.8748 4.1665C16.1479 4.42249 16.3613 4.73545 16.4998 5.08317C16.685 5.59061 16.7809 6.12632 16.7832 6.6665C16.8248 7.49984 16.8332 7.80817 16.8332 9.99984C16.8332 12.1915 16.8248 12.4998 16.7832 13.3332ZM9.99984 5.72484C9.15468 5.72648 8.32897 5.97861 7.62705 6.44935C6.92513 6.92009 6.37849 7.58833 6.0562 8.36963C5.73391 9.15093 5.65044 10.0102 5.81633 10.8389C5.98222 11.6677 6.39003 12.4286 6.98823 13.0257C7.58643 13.6227 8.34818 14.029 9.17722 14.1933C10.0063 14.3576 10.8654 14.2724 11.6461 13.9486C12.4267 13.6248 13.0939 13.0769 13.5633 12.374C14.0327 11.6712 14.2832 10.845 14.2832 9.99984C14.2843 9.43742 14.1742 8.88034 13.9592 8.36063C13.7442 7.84092 13.4286 7.36884 13.0306 6.97155C12.6325 6.57425 12.1598 6.25957 11.6397 6.04561C11.1195 5.83165 10.5622 5.72264 9.99984 5.72484ZM9.99984 12.7748C9.45099 12.7748 8.91447 12.6121 8.45813 12.3072C8.00178 12.0022 7.6461 11.5688 7.43607 11.0618C7.22604 10.5547 7.17108 9.99676 7.27816 9.45846C7.38523 8.92016 7.64952 8.42571 8.03761 8.03761C8.42571 7.64952 8.92016 7.38523 9.45846 7.27816C9.99676 7.17108 10.5547 7.22604 11.0618 7.43607C11.5688 7.6461 12.0022 8.00178 12.3072 8.45813C12.6121 8.91447 12.7748 9.45099 12.7748 9.99984C12.7748 10.3643 12.7031 10.7251 12.5636 11.0618C12.4241 11.3985 12.2197 11.7044 11.9621 11.9621C11.7044 12.2197 11.3985 12.4241 11.0618 12.5636C10.7251 12.7031 10.3643 12.7748 9.99984 12.7748Z" fill="white"/>
</svg>
